<?xml version="1.0" encoding="utf-8"?>
<!-- Generator: Adobe Illustrator 16.0.0, SVG Export Plug-In . SVG Version: 6.00 Build 0)  -->
<!DOCTYPE svg PUBLIC "-//W3C//DTD SVG 1.1//EN" "http://www.w3.org/Graphics/SVG/1.1/DTD/svg11.dtd">
<svg version="1.1" id="Layer_1" xmlns="http://www.w3.org/2000/svg" xmlns:xlink="http://www.w3.org/1999/xlink" x="0px" y="0px"
	 width="501.76px" height="76.521px" viewBox="0 0 501.76 76.521" enable-background="new 0 0 501.76 76.521" xml:space="preserve">
<path fill-rule="evenodd" clip-rule="evenodd" fill="#FFFFFF" d="M500.264,40.068c-0.738,0-1.422,0.359-1.814,0.963
	c-1.184,1.791-2.361,3.53-3.713,5.117c-1.295,1.514-5.34,4.031-8.699,4.662l-1.33,0.25l0.16-1.351l0.15-1.28
	c0.109-0.909,0.219-1.779,0.289-2.649c0.551-6.7-0.029-11.69-1.889-16.2c-1.682-4.08-3.941-6.57-7.111-7.85
	c-1.18-0.48-2.279-0.721-3.26-0.721c-2.17,0-3.93,1.17-5.389,3.58c-0.15,0.25-0.291,0.5-0.461,0.78l-0.67,1.18l-0.91-0.75
	c-0.42-0.34-0.82-0.67-1.23-1.01c-0.949-0.79-1.859-1.54-2.799-2.26c-0.76-0.57-1.641-1.07-2.561-1.59c-2-1.13-4.09-1.71-6.23-1.71
	c-3.869,0-7.811,1.899-10.811,5.22c-4.908,5.42-7.859,12.11-8.77,19.86c-0.109,0.989-0.389,2.279-1.48,3.479
	c-3.629,3.98-7.969,8.45-13.689,11.29c-1.23,0.61-2.73,1.01-4.34,1.18c-0.18,0.021-0.359,0.03-0.52,0.03
	c-0.85,0-1.5-0.26-1.951-0.76c-0.479-0.54-0.658-1.3-0.549-2.32c0.26-2.26,0.59-4.67,1.26-6.99c1.08-3.75,2.27-7.529,3.43-11.189
	c0.6-1.91,1.201-3.83,1.791-5.74c0.33-1.09,1.01-1.6,2.199-1.649c1.471-0.061,2.891-0.131,4.23-0.45
	c1.959-0.45,3.369-1.37,4.08-2.65c0.719-1.31,0.75-3.03,0.09-4.99c-0.061-0.17-0.121-0.33-0.189-0.489l-7.182,0.689l0.281-1.33
	c0.129-0.649,0.27-1.27,0.4-1.88c0.299-1.36,0.58-2.66,0.799-3.939c0.381-2.221,0.59-4.811-0.65-7.19
	c-1.379-2.64-4.219-4.28-7.42-4.28c-0.709,0-1.43,0.08-2.139,0.25c-5.301,1.24-9.301,4.58-12.23,7.471l1.76,9.699l-1,0.16
	c-0.5,0.09-0.961,0.16-1.391,0.22c-0.859,0.131-1.6,0.24-2.309,0.421c-1.852,0.46-3.041,1.229-3.551,2.29
	c-0.51,1.05-0.359,2.47,0.43,4.22c0.141,0.33,0.311,0.64,0.471,0.939l6.389-1.149l-0.26,1.42c-0.148,0.82-0.279,1.63-0.41,2.42
	c-0.5,3.15-0.979,6.13-2.719,8.97c-5.551,9.07-11.52,15.36-18.76,19.79c-2.17,1.33-5.111,2.91-8.521,3.33
	c-0.729,0.09-1.449,0.14-2.139,0.14c-3.551,0-6.561-1.14-8.701-3.29c-2.119-2.13-3.219-5.13-3.199-8.689l0.01-1.33l1.279,0.38
	c0.4,0.13,0.801,0.25,1.201,0.38c0.75,0.23,1.48,0.46,2.23,0.67c1.58,0.431,3.219,0.65,4.85,0.65
	c10.219-0.01,18.459-8.11,18.76-18.46c0.18-6.32-2.4-10.771-7.66-13.25c-2.141-1-4.41-1.49-6.971-1.49
	c-1.299,0-2.689,0.14-4.129,0.4c-7.34,1.35-13.381,5.54-18.48,12.83c-1.971,2.81-3.57,6.02-5.18,10.42
	c-0.58,1.58-1.48,3.22-2.75,5.01c-2.09,2.96-4.721,6.32-8.291,8.82c-1.359,0.96-2.859,1.649-4.33,2.01
	c-0.34,0.08-0.689,0.12-1.02,0.12c-1.039,0-1.959-0.4-2.609-1.12c-0.65-0.73-0.939-1.73-0.811-2.811
	c0.311-2.67,0.859-4.899,1.67-6.84c0.9-2.149,1.939-4.27,2.951-6.319c0.818-1.66,1.67-3.37,2.42-5.08
	c1.42-3.2,1.959-6.221,1.648-9.21c-0.51-4.88-3.729-7.79-8.6-7.79c-0.23,0-0.459,0.01-0.689,0.02
	c-4.131,0.23-7.65,2.101-10.891,3.99c-1.229,0.72-2.439,1.51-3.729,2.36c-0.621,0.409-1.262,0.829-1.941,1.27l-3.049,1.96
	l1.609-3.25l0.301-0.62c0.158-0.33,0.289-0.59,0.43-0.84c1.979-3.67,3.93-7.67,4.76-11.97c0.279-1.431,0.35-2.91,0.209-4.26
	c-0.209-2.16-1.398-3.341-3.34-3.341c-0.43,0-0.9,0.061-1.389,0.181c-2.141,0.52-4.191,1.67-6.262,3.51
	c-5.898,5.27-8.869,11.09-9.068,17.81c-0.102,3.61,0.949,6.16,3.629,8.811l0.551,0.55l-0.391,0.67c-0.41,0.7-0.82,1.41-1.221,2.12
	c-0.908,1.59-1.84,3.229-2.869,4.8c-4.811,7.33-10.32,12.82-16.84,16.771c-2.35,1.43-5.211,2.93-8.529,3.319
	c-0.711,0.08-1.42,0.12-2.102,0.12c-7.029,0-11.609-4.38-11.959-11.439c-0.01-0.221,0.02-0.391,0.05-0.53l0.03-0.16l0.189-1.12
	l1.09,0.33c0.41,0.13,0.82,0.26,1.221,0.39c0.85,0.271,1.65,0.53,2.459,0.73c1.51,0.38,3.041,0.57,4.57,0.57
	c5.5,0,10.75-2.471,14.391-6.78c3.57-4.23,5.1-9.76,4.18-15.17c-1-5.92-5.9-10.45-11.92-11.01c-0.891-0.08-1.77-0.13-2.641-0.13
	c-7.959,0-14.789,3.6-20.889,11c-2.381,2.88-4.051,6.21-5.831,9.949c-1.62,3.4-4.72,5.48-6.9,6.75c-2.02,1.16-3.8,1.7-5.61,1.7
	c-0.19,0-0.38,0-0.57-0.01l-1.25-0.08l0.35-1.2c0.25-0.82,0.5-1.64,0.74-2.439c0.55-1.79,1.07-3.471,1.5-5.2
	c1.29-5.29,1.44-9.601,0.47-13.57c-1.08-4.36-3.94-6.77-8.07-6.77c-0.44,0-0.9,0.029-1.37,0.09c-2.13,0.24-3.89,1.46-5.36,3.71
	c-2.4,3.689-3.45,8.14-3.28,14.02c0.16,5.511,1.48,10.011,4.03,13.73c0.36,0.53,0.52,1.479,0.16,2.12c-1.64,2.79-3.59,5.6-6.77,7.2
	c-1.34,0.67-2.68,1.01-3.99,1.01c-2.72,0-5.11-1.44-6.74-4.061c-1.76-2.83-2.68-6.14-2.82-10.13c-0.27-7.689,1.44-14.859,5.08-21.33
	l0.06-0.109c0.09-0.19,0.23-0.48,0.5-0.71c0.89-0.771,0.87-1.33-0.1-3c-1.64-2.851-4.5-4.551-7.66-4.551
	c-2.64,0-5.19,1.17-7.16,3.28c-2.98,3.19-4.91,7.32-6.08,12.99c-0.34,1.649-0.54,3.37-0.74,5.04c-0.1,0.899-0.21,1.8-0.33,2.689
	c-0.08,0.521-0.2,1.12-0.53,1.631c-5.58,8.479-11.85,14.449-19.18,18.279c-2.98,1.55-5.75,2.311-8.48,2.311
	c-1.44,0-2.88-0.221-4.3-0.641c-4.8-1.46-7.88-6.029-7.65-11.38l0.06-1.29l1.24,0.37c0.39,0.12,0.77,0.24,1.16,0.37
	c0.75,0.23,1.5,0.47,2.26,0.68c1.58,0.431,3.21,0.65,4.84,0.65c10.23-0.01,18.47-8.11,18.77-18.45c0.18-6.33-2.4-10.78-7.66-13.25
	c-2.14-1.01-4.41-1.5-6.97-1.5c-1.3,0-2.69,0.14-4.12,0.4c-7.35,1.35-13.39,5.54-18.49,12.819c-2.24,3.2-3.94,6.66-5.05,10.28
	c-0.91,2.93-2.81,5.13-4.66,7.26l-0.08,0.101c-2.25,2.6-4.84,4.939-6.83,6.68c-0.8,0.69-2.03,1.15-3.67,1.35
	c-0.18,0.03-0.34,0.04-0.5,0.04c-0.99,0-1.56-0.409-1.86-0.76c-0.47-0.54-0.64-1.28-0.51-2.2c0.31-2.229,0.71-3.989,1.25-5.54
	c0.71-2.029,1.49-4.069,2.24-6.04c0.92-2.399,1.87-4.89,2.69-7.359c1.65-4.92,1.24-9.021-1.24-12.561
	c-2.04-2.92-5.1-4.279-9.62-4.279h-0.25c-5.89,0.069-12.67,0.819-18.42,6.229c-0.22,0.21-0.43,0.55-0.67,0.87
	c-0.31,0.44-0.14,0.21-0.51,0.76l-0.62,0.87l-0.01,0.05l-0.01-0.02l0.02-0.03l0.15-0.56c0.34-1.21,0.68-2.42,1.02-3.63
	c0.78-2.771,1.58-5.63,2.28-8.46l0.31-1.24c0.67-2.65,1.36-5.391,1.53-8.07c0.28-4.2-2.6-7.6-6.83-8.08
	c-0.21-0.02-0.38-0.09-0.52-0.17h-2.23c-4.61,1.09-8.87,3.61-13.03,7.7c-0.06,0.06-0.14,0.19-0.18,0.29
	c1.58,4.22,1.42,8.61,1.05,12.35c-0.6,6.12-1.43,12.641-2.6,20.49c-0.25,1.64-1.26,3.12-2.17,4.46
	c-5.48,8.01-11.74,13.82-19.14,17.75c-3.46,1.84-6.46,2.71-9.5,2.72c-5.04,0-9.46-3.609-10.51-8.6c-1.06-4.98-0.4-10.14,2.08-16.21
	c1.23-3.04,3.11-6.9,6.67-9.73c0.94-0.75,2.14-1.34,3.38-1.659c0.5-0.12,0.99-0.19,1.45-0.19c1.22,0,2.28,0.46,2.97,1.29
	c0.77,0.92,1.04,2.23,0.78,3.7c-0.37,2.04-1.07,4.02-1.82,6.04c-0.45,1.21-1.12,2.49-1.98,3.8c-0.24,0.36-0.29,0.479,0.16,0.96
	c1.09,1.16,2.45,1.73,4.17,1.73c0.38,0,0.8-0.03,1.22-0.091c3.31-0.47,6.13-2.159,7.95-4.76c1.84-2.64,2.47-5.93,1.76-9.26
	c-1.59-7.46-7.19-11.73-15.35-11.73c-0.24,0-0.49,0-0.74,0.011c-7.16,0.22-13.41,3.26-18.56,9.05
	c-7.46,8.37-10.91,17.96-10.26,28.49c0.5,8.02,4.09,13.479,10.67,16.21c2.57,1.069,5.31,1.59,8.38,1.59c1.5,0,3.11-0.13,4.78-0.38
	c8.69-1.33,16.43-5.431,24.38-12.88c0.89-0.83,1.8-1.631,2.61-2.341l0.93-0.819l1.8-1.601l-0.14,2.41
	c-0.03,0.51-0.07,1.07-0.12,1.65c-0.11,1.399-0.23,2.979-0.19,4.52c0.05,1.59,0.33,3.17,0.81,4.58c0.96,2.771,3.34,4.29,6.78,4.29
	c2.56-0.01,4.76-0.71,6.51-2.06c0.26-0.2,0.44-0.49,0.46-0.61c0.47-2.51,0.91-5.03,1.36-7.54c0.69-3.92,1.41-7.979,2.2-11.95
	c0.63-3.16,1.42-6.33,2.19-9.39c0.28-1.09,0.55-2.19,0.82-3.29c0.11-0.43,0.38-1.22,0.99-1.66c3.13-2.229,6.01-3.27,9.09-3.27h0.12
	c1.6,0.02,2.93,0.54,3.86,1.5c0.88,0.909,1.33,2.159,1.29,3.59c-0.07,2.39-0.39,4.85-0.95,7.319c-0.51,2.23-1.1,4.46-1.67,6.62
	c-0.65,2.45-1.32,4.98-1.86,7.49c-0.63,2.9-0.41,5.83,0.65,8.47c1.18,2.95,3.54,4.551,7,4.761c0.3,0.02,0.59,0.029,0.89,0.029
	c3.36,0,6.64-1.12,10.33-3.529c3.9-2.54,7.44-5.94,11.48-11.021l0.15-0.189c0.14-0.19,0.29-0.37,0.45-0.561
	c0.25-0.28,0.56-0.35,0.62-0.36l0.95-0.34l0.33,0.96c0.2,0.61,0.39,1.21,0.58,1.82c0.41,1.32,0.79,2.56,1.33,3.73
	c2.65,5.75,7.27,8.939,14.11,9.779c1.26,0.16,2.53,0.23,3.78,0.23c5.41,0,10.79-1.391,16.45-4.26
	c6.83-3.471,12.86-8.601,17.92-15.25c0.19-0.261,0.4-0.5,0.58-0.71l1.07-1.311l0.63,1.58c0.41,1.03,0.8,2.08,1.2,3.14
	c0.88,2.351,1.8,4.79,2.9,7.08c1.67,3.45,4.11,6.07,7.24,7.811c2.49,1.37,5.1,2.069,7.77,2.069c2.29,0,4.7-0.51,7.17-1.529
	c5.5-2.261,9.33-6.57,12.06-10.08c0.94-1.2,1.81-2.521,2.65-3.79c0.54-0.82,1.08-1.641,1.64-2.44c0.09-0.12,0.86-1.17,1.94-1.17
	h0.01c0.61,0.04,1.22,0.07,1.83,0.07c3.92,0,7.35-0.87,10.49-2.66l1.3-0.74l0.19,1.48c0.09,0.729,0.17,1.45,0.24,2.16
	c0.16,1.5,0.3,2.92,0.63,4.279c2.12,8.971,8.069,13.761,17.69,14.23c0.539,0.03,1.069,0.04,1.59,0.04
	c5.51,0,11.049-1.44,16.469-4.271c11.811-6.18,20.342-15.859,26.061-29.59c0.23-0.54,0.41-1.1,0.611-1.689
	c0.18-0.551,0.359-1.091,0.568-1.631c0.23-0.569,0.801-1.25,1.49-1.38c0.541-0.1,1.08-0.21,1.611-0.319
	c1.75-0.351,3.549-0.71,5.379-0.761l0.17-0.01c1.561,0,2.92,0.601,3.83,1.681c0.939,1.119,1.291,2.649,1,4.3
	c-0.359,2.01-0.959,4.02-1.779,5.96c-1.85,4.39-3.65,9.16-4.211,14.26c-0.48,4.28,0.141,7.26,2,9.67c1.701,2.21,4.051,3.24,7.4,3.24
	c0.52,0,1.07-0.021,1.641-0.07c3.51-0.31,6.9-1.66,11-4.399c3.74-2.49,7.25-5.69,10.729-9.79c0.221-0.261,0.451-0.511,0.701-0.811
	l1.65-1.87l0.5,1.78c0.129,0.46,0.24,0.92,0.359,1.35c0.23,0.881,0.449,1.721,0.73,2.5c2.449,6.92,7.359,10.73,15,11.641
	c1.209,0.14,2.439,0.21,3.65,0.21c5.379,0,10.77-1.391,16.459-4.271c6.109-3.09,11.471-7.449,16.4-13.319
	c0.141-0.17,0.279-0.33,0.49-0.561l2.189-2.49v2.65c0,0.7-0.02,1.38-0.039,2.03c-0.041,1.34-0.08,2.609,0.08,3.8
	c0.299,2.17,0.67,4.46,1.529,6.45c1.43,3.3,4.289,5.2,7.83,5.2c1.459,0,2.969-0.32,4.49-0.96c6.549-2.75,11.859-7.341,15.76-11.03
	c1.709-1.61,3.299-3.28,4.99-5.05c0.76-0.801,1.52-1.591,2.289-2.391l1.131-1.16l0.529,1.54c0.189,0.54,0.371,1.08,0.541,1.63
	c0.389,1.181,0.789,2.391,1.25,3.54c2.75,6.78,6.979,11.11,12.939,13.24c2.439,0.87,4.93,1.311,7.4,1.311
	c2.648,0,5.33-0.5,7.979-1.511c7.842-2.97,13.781-8.08,17.682-15.21c0.879-1.6,2.01-2.06,3.449-2.239
	c6.881-0.891,11.662-7.093,14.271-11.316c0.682-1.117,1.252-2.35,1.803-3.551c0.244-0.525,0.482-1.053,0.738-1.566v-0.334
	C501.428,40.331,500.891,40.068,500.264,40.068z M356.498,45.45c1.539-5.56,3.689-11.22,8.969-15.04
	c0.801-0.58,1.811-1.05,3.02-1.39c0.471-0.13,0.891-0.19,1.281-0.19c1.5,0,2.5,0.9,2.98,2.68c0.779,2.92-0.09,5.631-0.811,7.41
	c-2.1,5.221-6.211,8.09-11.561,8.09c-1,0-2.049-0.109-3.109-0.31l-1.061-0.21L356.498,45.45z M249.947,45.54
	c1.55-5.62,3.711-11.36,9.07-15.189c0.76-0.551,1.76-0.99,3.039-1.351c0.42-0.12,0.82-0.18,1.201-0.18c1.539,0,2.629,0.99,2.9,2.63
	c0.289,1.76,0.289,3.49-0.012,5.01c-1.25,6.33-6.229,10.601-12.41,10.62c-0.659,0-1.299-0.08-1.979-0.17
	c-0.301-0.04-0.621-0.07-0.94-0.11l-1.181-0.12L249.947,45.54z M134.737,45.54c1.55-5.62,3.72-11.36,9.06-15.189
	c0.77-0.551,1.77-0.99,3.04-1.351c0.42-0.12,0.83-0.18,1.21-0.18c1.54,0,2.63,0.979,2.9,2.62c0.29,1.77,0.29,3.5-0.01,5.01
	c-1.24,6.34-6.22,10.61-12.4,10.63c-0.66,0-1.29-0.08-1.96-0.16c-0.31-0.04-0.64-0.08-0.97-0.12l-1.19-0.109L134.737,45.54z
	 M468.758,50.97c-0.67,4.82-2.801,8.46-6.32,10.801c-1.52,1.01-3.17,1.55-4.77,1.55c-3.221,0-5.971-2.19-7.17-5.73
	c-1.48-4.38-1.371-9.13,0.33-14.54c1.52-4.819,3.93-8.319,7.379-10.71c1.73-1.199,3.92-1.92,5.85-1.92c0.102,0,0.201,0,0.301,0.01
	l0.959,0.03v0.97c0,0.771-0.01,1.54-0.02,2.311c-0.029,1.67-0.061,3.39,0.051,5.06c0.23,3.591,1.209,7.03,2.92,10.221
	C468.527,49.51,468.867,50.23,468.758,50.97z"/>
</svg>
