<svg enable-background="new 0 0 451.099 70.255" height="70.255" viewBox="0 0 451.099 70.255" width="451.099"
    xmlns="http://www.w3.org/2000/svg">
    <defs>
        <linearGradient y2="0" x2="1" y1="0" x1="0" id="gradient">
            <stop offset="0" stop-opacity="1" stop-color="#ffd400"/>
            <stop offset="1" stop-opacity="1" stop-color="#ff1ab2"/>
        </linearGradient>
        <filter id="shadow">
            <feDropShadow dx="3" dy="3" stdDeviation="0" flood-color="#0000ff" flood-opacity="0.75" />
        </filter>
    </defs>
    <path clip-rule="evenodd" d="m42.481 61.742v.332l.33.357h-1.011l-.65-.689v-.318h1.008l.324-.357-.324-.33v-.678h-2.021l-.357.351v.326l.355.33h-.688c0-.898-.449-1.338-1.338-1.338v-.324h.656v-.684h-.655l.656-2.02h-.656v-.32l3.689-.357v-1.006h-.33c-.602-.889-1.166-1.338-1.689-1.338v-.326h1.369v-.682h-6.07c-4.609 0-8.314-.33-11.125-1.008-4.506-.867-6.76-2.984-6.76-6.375v-1.006l.689-3.381c6.189-15.674 17.541-23.519 34.064-23.519 2.645 0 5.107.336 7.404 1.008 3.152 0 4.732-2.132 4.732-6.405v-3.021c-2.506-3.358-6.672-5.042-12.5-5.042h-2.344c-10.313 0-19.643 2.924-28 8.752-14.155 11.786-21.239 22.872-21.239 33.271v4.387c4.029 9.623 10.993 14.432 20.921 14.432 15.723 0 23.58-1.008 23.58-3.021l-1.006-.318zm67.504-24.051c.293-1.338.623-2.016 1.014-2.016v-.324l-.326-.351v-.33c.889 0 1.338-.332 1.338-1.008l4.045-2.02v-.678l-1.012-1.008c0-1.295.682-3.661 2.059-7.101 4.506-6.912 6.752-11.163 6.752-12.776v-2.015c-3.807-4.203-6.965-6.336-9.467-6.412l-3.389 1.008c-3.451 5.594-6.717 12.325-9.793 20.196l-20.629 5.405h-.678l3.033-6.731c3.391-5.976 5.092-9.913 5.092-11.813-3.754-5.373-7.27-8.064-10.512-8.064l-4.047 1.695-3.033 6.732v.324l.32.319-7.077 16.857c-.525 2.117-2.67 4.137-6.424 6.082v2.701c0 1.133.336 1.805 1.008 2.016l-.32 1.695c-4.744 8.877-7.121 14.602-7.121 17.168v2.02c1.137 0 1.699.559 1.699 1.695l4.734 1.691 1.332-1.008v.676h.369l4.365-6.764c1.58-5.188 3.162-8.66 4.732-10.441h.357l.326.357c.379 0 .838-.678 1.375-2.047l23.986-6.051h.32l-1.656 4.03c-3.828 7.475-5.746 13.318-5.746 17.537 0 .986.336 1.885 1.014 2.703h.324l.32-.363.367 1.371c2.48.215 3.721.551 3.721 1.01l1.014-1.01h.324l.32.322h.367c1.344-1.828 2.021-3.275 2.021-4.354.67-3.859 1.91-6.678 3.715-8.432v-.352l-.326-.33h.326v-1.008l1.012.33h.332v-.688l-.332-.324.332-1.34h.682c0-.664.33-1.006 1.008-1.006v-.678l-.32-.361c2.232-.359 3.357-1.475 3.357-3.348h.363l.326.318h.318c1.014-2.466 1.815-3.706 2.389-3.706zm114.172-33.228-.684-.682v-.369l.326-.319-.326-.357h-.363l-.324.357h-.363l-.682-1.728c-.9.076-3.883 3.049-8.957 8.926h-.689v-.353l1.734-1.695v-.362l-.363-.325-3.428 2.735h-.363l-.324-.353h-.365l-.324.353.689 1.732h-.365v.683h-.324l-.357-.362-3.797 4.108v-2.051l2.422-3.099v-.324h-.324l-3.791 4.786h-.363v-.318l.363-.369v-.676l-.689.676h-.363l-.324-.318h-.357c-.748.313-1.436 1.229-2.063 2.734l.33 1.039h-.33l.33 1.377-.688.689-.326-1.736h-.363l-1.012.686.324 1.051v.318l-.324-.318-3.104 3.092h-.363l-.324-.357h-.363c-.266 1.321-1.533 2.918-3.791 4.821l-8.236 10.619h-.357c-2.465-16.388-3.834-24.626-4.121-24.703 0-4.283-1.154-7.268-3.467-8.93-2.92-2.27-5.898-3.412-8.957-3.412-1.365 0-2.557.677-3.598 2.009-.119-.194-.178-.444-.178-.753l-12.094.938-12.105-.32c-2.887.406-4.332 1.642-4.332 3.699-13.582 28.5-21.225 45.808-22.941 51.923v.293l.324.318h.287l.33-.318h.613l-.32.932v.33l.32.287.936-.287c2.059.498 3.078 1.012 3.078 1.537l1.549-.318h.654l1.842 1.547h.324c1.566-.77 2.492-1.693 2.779-2.766 0-1.635 6.195-3.498 18.604-5.584 10.57-1.895 16.768-3.434 18.604-4.609 0-.477-.516-.789-1.555-.941l.293-.32c-.25-1.033-1.896-1.549-4.951-1.549l.326-.293v-.318l-.326-.287h1.549v-.645h-1.879v-.287h.656c.525-.629 1.045-.943 1.553-.943v-.934c-.773 0-1.289-.514-1.553-1.547l-1.555.318h-.326v-.607l-22.328 3.711c2.533-6.195 4.598-9.295 6.217-9.295 13.025-2.658 19.545-4.305 19.545-4.934v-.287c0-.432-.52-.648-1.553-.648v-.287l.287-.326v-.288c-1.643-.617-2.455-1.445-2.455-2.48l.287-.942h-.611v-.287l1.549-.645c0-.406-.834-.611-2.49-.611v-.287l.941-.33-.623-.932c-5.303.221-8.498.525-9.602.932h-.32l3.424-6.805c7.289-2.88 12.244-4.321 14.85-4.321 1.305-.152 2.492-.298 3.574-.443l1.029 4.764 7.225 37.767-.688 3.104c2.768 2.947 6.104 4.43 10.002 4.43h1.377c2.209 0 3.818-1.83 4.803-5.469 4.018-7.203 12.396-18.988 25.141-35.366 9.192-10.791 13.791-16.629 13.791-17.496zm49.789 21.097h-.656c.672-.785 2.252-4.338 4.732-10.66 0-1.862 3.988-2.8 11.959-2.8h.613l6.281.287v.319c-2.702 3.195-10.343 7.486-22.929 12.854zm-26.252 22.34c-.639-.082-1.381-.125-2.236-.125l.32-.293v-.318l-.32-.287h1.543v-.645h-1.873v-.287h.65c.531-.629 1.045-.943 1.559-.943v-.932c-.773 0-1.293-.514-1.559-1.547l-1.555.318h-.32v-.607l-22.33 3.711c2.535-6.195 4.598-9.295 6.213-9.295 13.031-2.658 19.551-4.305 19.551-4.934v-.287c0-.432-.52-.648-1.559-.648v-.287l.291-.326v-.288c-1.641-.617-2.459-1.445-2.459-2.48l.293-.942h-.611v-.287l1.543-.645c0-.406-.834-.611-2.49-.611v-.287l.947-.33-.623-.932c-5.303.221-8.498.525-9.604.932h-.324l3.428-6.805c7.289-2.88 12.246-4.321 14.846-4.321 1.814-.206 3.406-.412 4.793-.611.986 1.467 2.93 3.183 5.855 5.155-6.473 12.879-11.125 22.938-13.969 30.184zm159.043-36.711c0-.541-.459-.877-1.375-1.008 0-1.792-.688-2.691-2.059-2.691v-.367l.357-.32v-.364l-1.689-.324v-.682l.32-.325-.32-.357h.645v-.683h-1.332v-.325h3.721v-.362c0-.592-.568-.933-1.701-1.008l.357-.325c-.58-1.148-1.494-1.728-2.746-1.728h-6.461l-6.465-.32c-16.742 2.498-28.678 3.743-35.799 3.743h-4.443c-.15.108-.285.216-.426.325-.369-.18-.555-.537-.555-1.084l-12.094.938-12.104-.32c-2.887.406-4.332 1.642-4.332 3.699-11 23.083-18.102 38.822-21.318 47.222-.578-5.475-2.063-13.242-4.447-23.311 12.6-6.434 18.898-11.021 18.898-13.784v-.943l-.33-1.905c-2.537-9.191-10.816-13.794-24.855-13.794h-2.814c-10.07 0-15.637.851-16.693 2.528-5.572 1.955-9.137 3.494-10.701 4.609h-1.24v-.292h.938v-.617c-1.225 0-1.838-.303-1.838-.932h1.225v-.318c0-.406-.52-.623-1.555-.623v-.321h.943v-.611c-.822 0-1.229-.406-1.229-1.225l-12.1.938-12.1-.32c-2.893.406-4.338 1.642-4.338 3.699-13.578 28.5-21.221 45.808-22.938 51.923v.293l.32.318h.293l.33-.318h.611l-.324.932v.33l.324.287.936-.287c2.055.498 3.078 1.012 3.078 1.537l1.543-.318h.654l1.848 1.547h.32c1.564-.77 2.49-1.693 2.777-2.766 0-1.635 6.201-3.498 18.609-5.584 5.492-.986 9.799-1.873 12.93-2.664-1.09 3.244-1.637 5.643-1.637 7.197v.975c.801.119 1.42.736 1.879 1.869l.938-.32c.654 0 .975.211.975.643l.611-.643c2.102.709 3.146 1.547 3.146 2.512h.326c1.662-4.174 2.707-6.254 3.141-6.254.959-2.713 1.594-4.078 1.879-4.109 2.361-4.367 3.938-6.549 4.734-6.549l-.656-.656 1.594-3.455h.33v.33l-1.268 3.457h.938l.33-1.582c.791-.385 1.836-2.053 3.137-5.01l14.156-4.717c2.5 10.197 5.432 19.188 8.783 26.963.916 0 1.441.525 1.588 1.582l.611-.639 1.594.318c.313 0 .627-.422.941-1.262h.32l.291.332h.656c.406 0 .611-.314.611-.941.424 0 .645.414.645 1.26h.617l.326-.318-.299-2.566.553-.168c2.059.498 3.076 1.012 3.076 1.537l1.549-.318h.654l1.844 1.547h.324c1.564-.77 2.49-1.693 2.779-2.766 0-1.635 6.195-3.498 18.604-5.584 10.576-1.895 16.773-3.434 18.607-4.609 0-.477-.52-.789-1.559-.941l.291-.32c-.248-1.033-1.895-1.549-4.943-1.549l.32-.293v-.318l-.32-.287h1.543v-.645h-1.879v-.287h.656c.523-.629 1.045-.943 1.553-.943v-.934c-.77 0-1.287-.514-1.553-1.547l-1.557.318h-.324v-.607l-22.324 3.711c2.529-6.195 4.598-9.295 6.213-9.295 13.031-2.658 19.545-4.305 19.545-4.934v-.287c0-.432-.514-.648-1.553-.648v-.287l.291-.326v-.288c-1.641-.617-2.459-1.445-2.459-2.48l.287-.942h-.611v-.287l1.549-.645c0-.406-.834-.611-2.49-.611v-.287l.941-.33-.617-.932c-5.303.221-8.504.525-9.607.932h-.32l3.424-6.805c7.293-2.88 12.25-4.321 14.85-4.321l1.65-.195c1.643 4.019 4.762 6.032 9.371 6.032l12.641-2.013-2.746 6.441c-10.914 19.659-16.361 31.774-16.361 36.335l1.045 1.729c2.215 1.455 3.348 2.479 3.396 3.053h.324l.357-.363c0 1.127.672 1.695 2.025 1.695l1.377 1.371c.881 0 2.014-.684 3.389-2.059 2.334-6.385 9.5-21.213 21.496-44.503 1.008-4.285 2.371-6.433 4.078-6.433l20.125-2.384v-.689zm27.811 23.588c-6.406 8.574-13.35 12.852-20.84 12.852h-2.779c-4.867-.574-7.301-2.768-7.301-6.58v-.33c0-4.1 2.434-8.498 7.301-13.209 8.938-7.897 16.807-12.301 23.619-13.216.293 0 .748 1.657 1.381 4.959l-.324.977c.449.678.791 2.551 1.012 5.616-.389 3.704-1.083 6.677-2.069 8.931zm5.568-21.459v-.325c3.471-.741 5.205-1.63 5.205-2.665v-1.619l-.369-.357c-2.334-4.387-4.646-6.591-6.932-6.591h-.359c-5.951 0-13.83 2.323-23.629 6.948-15.51 8.692-23.262 18.367-23.262 29.025v2.34c.24 3.818.699 5.801 1.377 5.936 4.744 11 12.506 16.498 23.299 16.498h3.83c2.74 0 6.207-.559 10.404-1.664 12.271-4.057 18.418-13.182 18.418-27.393v-1.664c.001-5.725-2.658-11.888-7.982-18.469z" fill="url(#gradient)" fill-rule="evenodd" style="filter:url(#shadow);" />
</svg>